<?xml version="1.0" encoding="UTF-8"?>
<!DOCTYPE svg PUBLIC "-//W3C//DTD SVG 1.1//EN" "http://www.w3.org/Graphics/SVG/1.1/DTD/svg11.dtd">
<svg xmlns="http://www.w3.org/2000/svg" version="1.1" width="608px" height="512px" style="shape-rendering:geometricPrecision; text-rendering:geometricPrecision; image-rendering:optimizeQuality; fill-rule:evenodd; clip-rule:evenodd" xmlns:xlink="http://www.w3.org/1999/xlink">
<g><path style="opacity:1" fill="#373837" d="M 111.5,102.5 C 194.834,102.333 278.167,102.5 361.5,103C 389.269,108.436 406.102,124.936 412,152.5C 412.667,221.167 412.667,289.833 412,358.5C 406.114,386.052 389.281,402.552 361.5,408C 278.167,408.667 194.833,408.667 111.5,408C 84.9651,403.13 68.4651,387.63 62,361.5C 61.3333,290.833 61.3333,220.167 62,149.5C 68.6408,123.357 85.1408,107.691 111.5,102.5 Z"/></g>
<g><path style="opacity:1" fill="#373837" d="M 542.5,132.5 C 560.879,132.44 573.045,141.106 579,158.5C 579.667,222.833 579.667,287.167 579,351.5C 571.532,371.939 557.032,380.106 535.5,376C 502.72,359.113 470.72,340.946 439.5,321.5C 438.333,277.504 438.167,233.504 439,189.5C 467.646,171.536 496.813,154.369 526.5,138C 531.639,135.226 536.972,133.393 542.5,132.5 Z"/></g>
</svg>
