<?xml version="1.0" encoding="UTF-8"?>
<!DOCTYPE svg PUBLIC "-//W3C//DTD SVG 1.1//EN" "http://www.w3.org/Graphics/SVG/1.1/DTD/svg11.dtd">
<svg xmlns="http://www.w3.org/2000/svg" version="1.1" width="608px" height="512px" style="shape-rendering:geometricPrecision; text-rendering:geometricPrecision; image-rendering:optimizeQuality; fill-rule:evenodd; clip-rule:evenodd" xmlns:xlink="http://www.w3.org/1999/xlink">
<g><path style="opacity:1" fill="#f25150" d="M 436.5,16.5 C 439.85,16.335 443.183,16.5017 446.5,17C 453.011,21.4226 459.345,26.0892 465.5,31C 470.259,35.4908 471.759,40.9908 470,47.5C 448.833,75.1667 427.667,102.833 406.5,130.5C 409.962,136.386 412.129,142.72 413,149.5C 413.667,218.167 413.667,286.833 413,355.5C 407.203,382.483 390.703,398.316 363.5,403C 307.167,403.333 250.833,403.667 194.5,404C 172.333,432.833 150.167,461.667 128,490.5C 122.763,494.799 116.93,495.632 110.5,493C 103.667,487.5 96.8333,482 90,476.5C 87.7487,470.947 88.082,465.613 91,460.5C 204.333,313.833 317.667,167.167 431,20.5C 432.812,19.0229 434.645,17.6896 436.5,16.5 Z"/></g>
<g><path style="opacity:1" fill="#f25150" d="M 116.5,101.5 C 186.484,101.178 256.151,101.511 325.5,102.5C 323.573,105.778 321.74,109.111 320,112.5C 295.198,142.094 270.865,172.094 247,202.5C 244.916,206.336 242.583,210.003 240,213.5C 229.964,224.865 219.964,236.199 210,247.5C 201.449,261.247 191.449,273.914 180,285.5C 165.756,304.322 151.756,323.322 138,342.5C 123.227,358.051 109.394,374.384 96.5,391.5C 95.2643,392.357 93.931,393.023 92.5,393.5C 79.1397,385.136 70.973,373.136 68,357.5C 67.3333,287.5 67.3333,217.5 68,147.5C 74.314,121.684 90.4807,106.351 116.5,101.5 Z"/></g>
<g><path style="opacity:1" fill="#f25150" d="M 338.5,121.5 C 339.525,121.897 339.692,122.563 339,123.5C 338.536,122.906 338.369,122.239 338.5,121.5 Z"/></g>
<g><path style="opacity:1" fill="#f25150" d="M 541.5,131.5 C 560.459,130.972 572.959,139.639 579,157.5C 579.667,220.5 579.667,283.5 579,346.5C 571.829,367.506 557.329,375.672 535.5,371C 503.626,353.814 472.126,335.98 441,317.5C 440.167,273.83 440.333,230.163 441.5,186.5C 470.5,169.667 499.5,152.833 528.5,136C 532.715,133.763 537.048,132.263 541.5,131.5 Z"/></g>
<g><path style="opacity:1" fill="#f25150" d="M 232.5,255.5 C 233.833,256.167 233.833,256.167 232.5,255.5 Z"/></g>
<g><path style="opacity:1" fill="#f25150" d="M 232.5,256.5 C 230.745,259.436 228.745,262.269 226.5,265C 225.365,265.749 224.365,265.583 223.5,264.5C 226.344,261.591 229.344,258.924 232.5,256.5 Z"/></g>
</svg>
