<?xml version="1.0" encoding="UTF-8"?>
<!DOCTYPE svg PUBLIC "-//W3C//DTD SVG 1.1//EN" "http://www.w3.org/Graphics/SVG/1.1/DTD/svg11.dtd">
<svg xmlns="http://www.w3.org/2000/svg" version="1.1" width="512px" height="512px" style="shape-rendering:geometricPrecision; text-rendering:geometricPrecision; image-rendering:optimizeQuality; fill-rule:evenodd; clip-rule:evenodd" xmlns:xlink="http://www.w3.org/1999/xlink">
<g><path style="opacity:1" fill="#373837" d="M 183.5,20.5 C 274.167,20.3333 364.834,20.5 455.5,21C 474.333,25.1667 485.833,36.6667 490,55.5C 490.667,146.167 490.667,236.833 490,327.5C 485.714,346.786 473.881,358.286 454.5,362C 443.167,362.667 431.833,362.667 420.5,362C 413.819,359.987 408.986,355.82 406,349.5C 404.678,291.224 404.012,232.891 404,174.5C 399.822,142.653 382.655,121.153 352.5,110C 347.552,108.744 342.552,107.744 337.5,107C 279.833,106.667 222.167,106.333 164.5,106C 156.667,103.5 151.5,98.3333 149,90.5C 148.078,77.4434 148.411,64.4434 150,51.5C 155.295,34.7014 166.461,24.3681 183.5,20.5 Z"/></g>
<g><path style="opacity:1" fill="#373837" d="M 55.5,148.5 C 146.167,148.333 236.834,148.5 327.5,149C 346.333,153.167 357.833,164.667 362,183.5C 362.667,274.167 362.667,364.833 362,455.5C 357.833,474.333 346.333,485.833 327.5,490C 236.833,490.667 146.167,490.667 55.5,490C 36.6667,485.833 25.1667,474.333 21,455.5C 20.3333,364.833 20.3333,274.167 21,183.5C 25.3477,164.653 36.8477,152.986 55.5,148.5 Z M 271.5,249.5 C 292.497,247.507 304.83,256.84 308.5,277.5C 308.063,283.468 306.563,289.134 304,294.5C 266.861,332.639 229.361,370.472 191.5,408C 178.275,416.943 165.275,416.61 152.5,407C 140.904,395.404 129.57,384.07 118.5,373C 108.92,363.768 99.4203,354.268 90,344.5C 80.4262,333.098 79.0929,320.765 86,307.5C 97.1686,293.005 111.002,289.838 127.5,298C 142.471,311.971 157.138,326.304 171.5,341C 172.5,341.667 173.5,341.667 174.5,341C 203.113,312.387 231.779,283.721 260.5,255C 264.017,252.674 267.683,250.84 271.5,249.5 Z"/></g>
</svg>
