<?xml version="1.0" encoding="UTF-8"?>
<!DOCTYPE svg PUBLIC "-//W3C//DTD SVG 1.1//EN" "http://www.w3.org/Graphics/SVG/1.1/DTD/svg11.dtd">
<svg xmlns="http://www.w3.org/2000/svg" version="1.1" width="512px" height="512px" style="shape-rendering:geometricPrecision; text-rendering:geometricPrecision; image-rendering:optimizeQuality; fill-rule:evenodd; clip-rule:evenodd" xmlns:xlink="http://www.w3.org/1999/xlink">
<g><path style="opacity:1" fill="#373837" d="M 321.5,-0.5 C 376.833,-0.5 432.167,-0.5 487.5,-0.5C 499.833,3.16667 507.833,11.1667 511.5,23.5C 511.5,78.8333 511.5,134.167 511.5,189.5C 504.899,208.315 491.566,216.148 471.5,213C 459,209.833 451.167,202 448,189.5C 447.667,163.167 447.333,136.833 447,110.5C 406.833,150.667 366.667,190.833 326.5,231C 313.256,240.182 299.589,240.848 285.5,233C 271.163,219.803 268.663,204.636 278,187.5C 318.472,146.028 359.306,104.861 400.5,64C 374.167,63.6667 347.833,63.3333 321.5,63C 302.562,56.6446 294.728,43.478 298,23.5C 301.349,10.9853 309.182,2.98533 321.5,-0.5 Z"/></g>
<g><path style="opacity:1" fill="#373837" d="M 189.5,511.5 C 134.167,511.5 78.8333,511.5 23.5,511.5C 11.1667,507.833 3.16667,499.833 -0.5,487.5C -0.5,432.167 -0.5,376.833 -0.5,321.5C 6.10113,302.685 19.4345,294.852 39.5,298C 52,301.167 59.8333,309 63,321.5C 63.3333,347.833 63.6667,374.167 64,400.5C 104.167,360.333 144.333,320.167 184.5,280C 197.729,270.785 211.395,270.118 225.5,278C 239.516,290.586 242.35,305.419 234,322.5C 193.194,364.306 152.028,405.806 110.5,447C 136.833,447.333 163.167,447.667 189.5,448C 208.438,454.355 216.272,467.522 213,487.5C 209.651,500.015 201.818,508.015 189.5,511.5 Z"/></g>
</svg>
