<?xml version="1.0" encoding="UTF-8"?>
<!DOCTYPE svg PUBLIC "-//W3C//DTD SVG 1.1//EN" "http://www.w3.org/Graphics/SVG/1.1/DTD/svg11.dtd">
<svg xmlns="http://www.w3.org/2000/svg" version="1.1" width="512px" height="512px" style="shape-rendering:geometricPrecision; text-rendering:geometricPrecision; image-rendering:optimizeQuality; fill-rule:evenodd; clip-rule:evenodd" xmlns:xlink="http://www.w3.org/1999/xlink">
<g><path style="opacity:1" fill="#373837" d="M -0.5,343.5 C -0.5,336.833 -0.5,330.167 -0.5,323.5C 3.82639,308.187 11.3264,294.521 22,282.5C 37.2822,265.283 55.4488,252.116 76.5,243C 54.9242,221.935 46.7575,196.435 52,166.5C 65.6214,120.58 96.4548,99.4137 144.5,103C 171.873,107.719 191.873,122.386 204.5,147C 157.04,176.099 137.874,218.265 147,273.5C 148.984,281.801 151.817,289.801 155.5,297.5C 135.711,312.121 119.211,329.788 106,350.5C 98.1761,363.804 93.6761,378.138 92.5,393.5C 79.8289,393.667 67.1623,393.5 54.5,393C 24.5926,389.255 6.25931,372.755 -0.5,343.5 Z"/></g>
<g><path style="opacity:1" fill="#373837" d="M 511.5,323.5 C 511.5,330.167 511.5,336.833 511.5,343.5C 504.741,372.755 486.407,389.255 456.5,393C 443.838,393.5 431.171,393.667 418.5,393.5C 417.324,378.138 412.824,363.804 405,350.5C 391.789,329.788 375.289,312.121 355.5,297.5C 377.185,246.439 368.185,201.605 328.5,163C 322.016,157.589 315.016,152.922 307.5,149C 306.978,148.439 306.645,147.772 306.5,147C 324.897,113.632 353.23,98.9652 391.5,103C 427.739,110.19 450.239,131.69 459,167.5C 464.029,197.077 455.862,222.244 434.5,243C 464.007,255.844 487.174,276.01 504,303.5C 507.225,310.021 509.725,316.688 511.5,323.5 Z"/></g>
<g><path style="opacity:1" fill="#373837" d="M 244.5,166.5 C 284.826,163.734 313.659,180.4 331,216.5C 342.939,250.889 336.439,281.222 311.5,307.5C 343.556,321.722 367.723,344.389 384,375.5C 394.478,410.368 383.645,436.201 351.5,453C 346.625,454.802 341.625,456.135 336.5,457C 282.5,457.667 228.5,457.667 174.5,457C 142.641,450.141 125.307,430.474 122.5,398C 122.833,386.335 125.999,375.502 132,365.5C 148.526,339.135 171.026,319.802 199.5,307.5C 174.561,281.222 168.061,250.889 180,216.5C 192.711,188.405 214.211,171.738 244.5,166.5 Z"/></g>
</svg>
