<?xml version="1.0" encoding="UTF-8"?>
<!DOCTYPE svg PUBLIC "-//W3C//DTD SVG 1.1//EN" "http://www.w3.org/Graphics/SVG/1.1/DTD/svg11.dtd">
<svg xmlns="http://www.w3.org/2000/svg" version="1.1" width="512px" height="512px" style="shape-rendering:geometricPrecision; text-rendering:geometricPrecision; image-rendering:optimizeQuality; fill-rule:evenodd; clip-rule:evenodd" xmlns:xlink="http://www.w3.org/1999/xlink">
<g><path style="opacity:1" fill="#373837" d="M 241.5,-0.5 C 250.833,-0.5 260.167,-0.5 269.5,-0.5C 318.822,9.65748 347.655,39.6575 356,89.5C 356.667,151.167 356.667,212.833 356,274.5C 348.724,321.776 321.891,351.276 275.5,363C 233.439,369.316 199.272,355.816 173,322.5C 163.059,308.016 157.059,292.016 155,274.5C 154.333,212.833 154.333,151.167 155,89.5C 163.345,39.6575 192.178,9.65748 241.5,-0.5 Z"/></g>
<g><path style="opacity:1" fill="#373837" d="M 345.5,511.5 C 285.5,511.5 225.5,511.5 165.5,511.5C 153.093,504.427 150.26,494.427 157,481.5C 160.543,477.426 165.043,475.259 170.5,475C 192.497,474.5 214.497,474.333 236.5,474.5C 236.5,458.833 236.5,443.167 236.5,427.5C 172.306,417.799 127.473,383.133 102,323.5C 93.4743,301.492 90.4743,278.825 93,255.5C 98.8226,246.114 106.989,243.281 117.5,247C 123.616,249.451 127.116,253.951 128,260.5C 129.587,316.558 155.42,356.724 205.5,381C 257.988,400.169 304.821,391.002 346,353.5C 370.465,327.459 382.798,296.459 383,260.5C 385.108,250.563 391.275,245.563 401.5,245.5C 410.307,245.805 416.141,250.138 419,258.5C 419.234,325.86 390.401,376.36 332.5,410C 314.233,419.367 294.899,425.2 274.5,427.5C 274.5,443.167 274.5,458.833 274.5,474.5C 296.503,474.333 318.503,474.5 340.5,475C 353.731,477.269 359.231,485.103 357,498.5C 355.411,504.917 351.577,509.251 345.5,511.5 Z"/></g>
</svg>
