<?xml version="1.0" encoding="UTF-8"?>
<!DOCTYPE svg PUBLIC "-//W3C//DTD SVG 1.1//EN" "http://www.w3.org/Graphics/SVG/1.1/DTD/svg11.dtd">
<svg xmlns="http://www.w3.org/2000/svg" version="1.1" width="512px" height="512px" style="shape-rendering:geometricPrecision; text-rendering:geometricPrecision; image-rendering:optimizeQuality; fill-rule:evenodd; clip-rule:evenodd" xmlns:xlink="http://www.w3.org/1999/xlink">
<g><path style="opacity:1" fill="#373837" d="M 472.5,-0.5 C 477.167,-0.5 481.833,-0.5 486.5,-0.5C 499.607,3.60629 507.94,12.273 511.5,25.5C 511.5,29.8333 511.5,34.1667 511.5,38.5C 509.907,43.02 507.74,47.3533 505,51.5C 464.167,92.3333 423.333,133.167 382.5,174C 408.833,174.333 435.167,174.667 461.5,175C 481.954,182.069 489.788,196.235 485,217.5C 480.57,228.265 472.737,235.099 461.5,238C 406.833,238.667 352.167,238.667 297.5,238C 284.667,234.5 276.5,226.333 273,213.5C 272.333,158.833 272.333,104.167 273,49.5C 280.069,29.0455 294.235,21.2122 315.5,26C 326.265,30.4301 333.099,38.2635 336,49.5C 336.333,75.8333 336.667,102.167 337,128.5C 378.167,87.3333 419.333,46.1667 460.5,5C 464.481,2.8381 468.481,1.00477 472.5,-0.5 Z"/></g>
<g><path style="opacity:1" fill="#373837" d="M 38.5,511.5 C 33.8333,511.5 29.1667,511.5 24.5,511.5C 11.8333,507.5 3.5,499.167 -0.5,486.5C -0.5,481.833 -0.5,477.167 -0.5,472.5C 0.605695,469.598 1.77236,466.598 3,463.5C 5,460.833 7,458.167 9,455.5C 48.527,415.973 88.027,376.473 127.5,337C 101.167,336.667 74.8333,336.333 48.5,336C 26.9684,327.766 19.8017,312.599 27,290.5C 31.7932,281.703 38.9598,275.869 48.5,273C 103.833,272.333 159.167,272.333 214.5,273C 226.333,276.833 234.167,284.667 238,296.5C 238.667,351.833 238.667,407.167 238,462.5C 229.013,484.838 213.179,491.671 190.5,483C 182.649,478.155 177.483,471.322 175,462.5C 174.667,435.833 174.333,409.167 174,382.5C 132.833,423.667 91.6667,464.833 50.5,506C 46.5591,508.139 42.5591,509.972 38.5,511.5 Z"/></g>
</svg>
