<?xml version="1.0" encoding="UTF-8"?>
<!DOCTYPE svg PUBLIC "-//W3C//DTD SVG 1.1//EN" "http://www.w3.org/Graphics/SVG/1.1/DTD/svg11.dtd">
<svg xmlns="http://www.w3.org/2000/svg" version="1.1" width="512px" height="512px" style="shape-rendering:geometricPrecision; text-rendering:geometricPrecision; image-rendering:optimizeQuality; fill-rule:evenodd; clip-rule:evenodd" xmlns:xlink="http://www.w3.org/1999/xlink">
<g><path style="opacity:1" fill="#f25150" d="M 242.5,-0.5 C 251.167,-0.5 259.833,-0.5 268.5,-0.5C 313.596,9.10018 339.763,36.7668 347,82.5C 347.333,90.1667 347.667,97.8333 348,105.5C 371.221,82.2792 394.387,59.1126 417.5,36C 432.02,28.6007 445.186,30.4341 457,41.5C 465.887,55.0724 465.554,68.4058 456,81.5C 336.5,201 217,320.5 97.5,440C 84.9479,449.214 71.9479,449.881 58.5,442C 46.4233,430.184 44.2567,416.684 52,401.5C 53.7134,400.122 55.0467,398.455 56,396.5C 73.5413,379.293 90.708,361.793 107.5,344C 102.358,329.931 99.1911,315.431 98,300.5C 97.0406,282.434 97.3739,264.434 99,246.5C 100.543,244.622 102.376,243.122 104.5,242C 113.5,241.333 122.5,241.333 131.5,242C 134,243.167 135.833,245 137,247.5C 137.333,262.5 137.667,277.5 138,292.5C 138.069,299.065 139.069,305.399 141,311.5C 148.333,304.167 155.667,296.833 163,289.5C 163.333,220.5 163.667,151.5 164,82.5C 171.237,36.7668 197.404,9.10018 242.5,-0.5 Z"/></g>
<g><path style="opacity:1" fill="#f25150" d="M 346.5,228.5 C 347.167,241.162 347.5,253.996 347.5,267C 347.606,282.2 347.106,297.367 346,312.5C 334.124,360.206 303.624,385.539 254.5,388.5C 235.799,388.078 218.799,382.578 203.5,372C 251.368,324.299 299.035,276.465 346.5,228.5 Z"/></g>
<g><path style="opacity:1" fill="#f25150" d="M 361.5,511.5 C 290.833,511.5 220.167,511.5 149.5,511.5C 146.8,509.954 144.967,507.621 144,504.5C 143.333,496.167 143.333,487.833 144,479.5C 144.786,476.417 146.619,474.251 149.5,473C 178.103,471.525 206.77,471.025 235.5,471.5C 235.831,463.14 235.498,454.807 234.5,446.5C 207.054,442.27 182.387,431.77 160.5,415C 170.014,405.319 179.681,395.819 189.5,386.5C 228.903,411.338 269.57,413.504 311.5,393C 345.657,373.222 365.823,343.722 372,304.5C 373.155,285.521 373.822,266.521 374,247.5C 375.167,245 377,243.167 379.5,242C 408.891,234.391 420.224,245.391 413.5,275C 415.487,343.048 387.487,394.382 329.5,429C 312.873,437.876 295.206,443.542 276.5,446C 275.517,454.415 275.183,462.915 275.5,471.5C 304.23,471.025 332.897,471.525 361.5,473C 364.381,474.251 366.214,476.417 367,479.5C 367.667,487.833 367.667,496.167 367,504.5C 366.033,507.621 364.2,509.954 361.5,511.5 Z"/></g>
</svg>
