<?xml version="1.0" encoding="UTF-8"?>
<!DOCTYPE svg PUBLIC "-//W3C//DTD SVG 1.1//EN" "http://www.w3.org/Graphics/SVG/1.1/DTD/svg11.dtd">
<svg xmlns="http://www.w3.org/2000/svg" version="1.1" width="512px" height="512px" style="shape-rendering:geometricPrecision; text-rendering:geometricPrecision; image-rendering:optimizeQuality; fill-rule:evenodd; clip-rule:evenodd" xmlns:xlink="http://www.w3.org/1999/xlink">
<g><path style="opacity:1" fill="#fa3e3e" d="M 232.5,-0.5 C 247.833,-0.5 263.167,-0.5 278.5,-0.5C 368.144,10.3879 435.644,54.7213 481,132.5C 497.695,163.971 507.861,197.304 511.5,232.5C 511.5,247.833 511.5,263.167 511.5,278.5C 500.612,368.144 456.279,435.644 378.5,481C 347.029,497.695 313.696,507.861 278.5,511.5C 263.167,511.5 247.833,511.5 232.5,511.5C 142.856,500.612 75.3562,456.279 30,378.5C 13.3053,347.029 3.1386,313.696 -0.5,278.5C -0.5,263.167 -0.5,247.833 -0.5,232.5C 10.3875,142.857 54.7208,75.3573 132.5,30C 163.971,13.3053 197.304,3.1386 232.5,-0.5 Z"/></g>
<g><path style="opacity:1" fill="#faf8f8" d="M 217.5,194.5 C 277.385,192.269 336.718,196.769 395.5,208C 403.612,208.558 410.445,211.725 416,217.5C 416.667,241.833 416.667,266.167 416,290.5C 413.762,297.07 409.262,301.237 402.5,303C 388.833,303.667 375.167,303.667 361.5,303C 354.137,300.305 349.637,295.138 348,287.5C 347.008,275.715 344.842,264.215 341.5,253C 284.487,244.42 227.487,244.42 170.5,253C 168.036,256.049 166.536,259.549 166,263.5C 164.885,272.538 163.552,281.538 162,290.5C 159.833,296.667 155.667,300.833 149.5,303C 135.5,303.667 121.5,303.667 107.5,303C 100.599,300.432 96.0993,295.598 94,288.5C 93.3333,265.833 93.3333,243.167 94,220.5C 97.0421,213.887 102.209,210.054 109.5,209C 145.341,202.002 181.341,197.169 217.5,194.5 Z"/></g>
</svg>
