<?xml version="1.0" encoding="UTF-8"?>
<!DOCTYPE svg PUBLIC "-//W3C//DTD SVG 1.1//EN" "http://www.w3.org/Graphics/SVG/1.1/DTD/svg11.dtd">
<svg xmlns="http://www.w3.org/2000/svg" version="1.1" width="512px" height="512px" style="shape-rendering:geometricPrecision; text-rendering:geometricPrecision; image-rendering:optimizeQuality; fill-rule:evenodd; clip-rule:evenodd" xmlns:xlink="http://www.w3.org/1999/xlink">
<g><path style="opacity:1" fill="#373837" d="M 110.5,112.5 C 207.834,112.333 305.167,112.5 402.5,113C 430.444,117.944 446.61,134.444 451,162.5C 451.667,226.5 451.667,290.5 451,354.5C 446.363,381.136 430.863,397.303 404.5,403C 305.833,403.667 207.167,403.667 108.5,403C 82.5514,397.385 67.0514,381.551 62,355.5C 61.3333,290.5 61.3333,225.5 62,160.5C 67.468,133.531 83.6347,117.531 110.5,112.5 Z M 253.5,188.5 C 258.416,188.29 262.749,189.79 266.5,193C 285,211.5 303.5,230 322,248.5C 328.715,260.06 325.715,267.727 313,271.5C 311.112,271.204 309.278,270.704 307.5,270C 295.015,258.349 282.682,246.515 270.5,234.5C 269.667,264.494 269.167,294.494 269,324.5C 264.871,332.976 258.371,335.476 249.5,332C 246.894,330.062 245.061,327.562 244,324.5C 243.833,294.494 243.333,264.494 242.5,234.5C 230.318,246.515 217.985,258.349 205.5,270C 194.918,272.87 188.585,268.87 186.5,258C 187.276,255.005 188.443,252.172 190,249.5C 209.167,230.333 228.333,211.167 247.5,192C 249.432,190.541 251.432,189.375 253.5,188.5 Z"/></g>
</svg>
