<?xml version="1.0" encoding="UTF-8"?>
<!DOCTYPE svg PUBLIC "-//W3C//DTD SVG 1.1//EN" "http://www.w3.org/Graphics/SVG/1.1/DTD/svg11.dtd">
<svg xmlns="http://www.w3.org/2000/svg" version="1.1" width="512px" height="512px" style="shape-rendering:geometricPrecision; text-rendering:geometricPrecision; image-rendering:optimizeQuality; fill-rule:evenodd; clip-rule:evenodd" xmlns:xlink="http://www.w3.org/1999/xlink">
<g><path style="opacity:1" fill="#f25150" d="M 254.5,75.5 C 269.472,75.6547 279.639,82.6547 285,96.5C 285.667,209.167 285.667,321.833 285,434.5C 276.862,454.751 262.696,460.585 242.5,452C 207.779,417.279 173.113,382.613 138.5,348C 113.167,347.667 87.8333,347.333 62.5,347C 50.2615,344.363 43.0948,336.863 41,324.5C 40.3333,285.167 40.3333,245.833 41,206.5C 43.7697,194.732 50.9364,187.232 62.5,184C 87.8333,183.667 113.167,183.333 138.5,183C 172.184,149.248 205.85,115.581 239.5,82C 244.142,78.7399 249.142,76.5732 254.5,75.5 Z"/></g>
<g><path style="opacity:1" fill="#f25150" d="M 345.5,205.5 C 351.221,204.806 356.221,206.306 360.5,210C 368.721,218.221 376.887,226.387 385,234.5C 394.476,224.691 404.31,215.191 414.5,206C 417.882,205.176 421.216,205.343 424.5,206.5C 431.117,211.614 437.283,217.281 443,223.5C 445,228.5 445,233.5 443,238.5C 433.833,247.667 424.667,256.833 415.5,266C 425.721,274.887 435.221,284.387 444,294.5C 444.867,298.956 444.534,303.289 443,307.5C 437.5,313 432,318.5 426.5,324C 420.985,326.238 415.651,325.905 410.5,323C 402.309,313.81 393.809,304.977 385,296.5C 375.47,306.364 365.637,315.864 355.5,325C 351.375,325.854 347.375,325.52 343.5,324C 338.054,318.554 332.554,313.054 327,307.5C 325,302.5 325,297.5 327,292.5C 335.264,283.114 344.097,274.281 353.5,266C 347.333,258.5 340.5,251.667 333,245.5C 330.667,242.5 328.333,239.5 326,236.5C 325.209,232.074 325.543,227.741 327,223.5C 333.062,217.27 339.229,211.27 345.5,205.5 Z"/></g>
</svg>
